<svg xmlns="http://www.w3.org/2000/svg" id="prefix__Layer_1" width="1167.64" height="457.01" data-name="Layer 1" version="1.1" viewBox="0 0 1167.64 457.01">
    <defs id="prefix__defs4">
        <style id="style2">
            .prefix__cls-1{fill:#e3b154}.prefix__cls-2{fill:#132c44}
        </style>
    </defs>
    <path id="prefix__polygon6" d="M54.18 61.1 54.18 182.82 87.15 182.82 87.15 136.27 133.61 136.27 133.61 108.78 87.15 108.78 87.15 89.15 141.72 89.15 141.82 61.1z" class="prefix__cls-1" transform="translate(-54.18 -59.5)"/>
    <path id="prefix__path8" d="M183.47 7.75C174.9 2.61 164.73 0 153.24 0c-11.49 0-21.68 2.6-30.37 7.74-8.68 5.14-15.51 12.5-20.3 21.89-4.73 9.29-7.13 20.42-7.13 33.07 0 12.65 2.38 23.6 7.04 32.82 4.73 9.34 11.51 16.65 20.14 21.74 8.6 5.08 18.9 7.66 30.6 7.66 11.7 0 21.83-2.58 30.42-7.66 8.61-5.09 15.34-12.41 20.01-21.74 4.63-9.24 6.97-20.28 6.97-32.81 0-12.53-2.39-23.76-7.09-33.07-4.75-9.38-11.51-16.74-20.08-21.89Zm-18.61 86.32c-3.31 2.17-7.11 3.22-11.62 3.22-4.51 0-8.35-1.08-11.63-3.22-3.23-2.1-5.84-5.63-7.74-10.48-1.99-5.08-2.99-11.97-2.99-20.48s1.01-15.83 3-21.11c1.91-5.05 4.53-8.74 7.79-10.98 3.27-2.24 7.17-3.38 11.57-3.38s8.18 1.1 11.5 3.35c3.25 2.2 5.85 5.88 7.75 10.91 1.96 5.29 2.96 12.43 2.96 21.2s-.98 15.42-2.9 20.5c-1.86 4.84-4.44 8.36-7.68 10.47z" class="prefix__cls-2"/>
    <path id="prefix__path10" d="M292.87 78.33c-.59 3.5-1.72 6.76-3.36 9.71-1.59 2.88-3.61 5.11-6.19 6.8-2.49 1.64-5.4 2.44-8.91 2.44-6.15 0-10.93-2.54-14.62-7.77-3.86-5.44-5.82-14.84-5.82-27.94 0-8.63.91-15.59 2.7-20.67 1.69-4.8 4.06-8.24 7.03-10.23 3.04-2.04 6.55-3.03 10.7-3.03 3.53 0 6.58.7 9.1 2.07 2.52 1.39 4.51 3.27 6.08 5.78 1.6 2.54 2.7 5.6 3.28 9.09l.38 2.27h34.04l-.33-3.01c-.9-8.39-3.68-16-8.28-22.61-4.59-6.6-10.68-11.85-18.08-15.58C293.19 1.9 284.68 0 275.28 0c-11.53 0-21.68 2.53-30.19 7.53-8.55 5.02-15.22 12.22-19.82 21.38-4.58 9.07-6.89 19.92-6.89 32.26 0 12.34 2.35 23.46 6.95 32.94 4.65 9.58 11.3 17.19 19.79 22.62 8.5 5.43 18.64 8.19 30.16 8.19 9.03 0 16.76-1.23 22.99-3.65 6.28-2.45 11.48-5.9 15.47-10.28 3.91-4.32 6.94-9.3 9.01-14.83 2.02-5.41 3.44-11.15 4.21-17.03l.4-3.08h-34.11l-.38 2.27z" class="prefix__cls-2"/>
    <path id="prefix__path12" d="M405.64 75.57c0 5.11-.81 9.24-2.42 12.27-1.57 2.98-3.62 5.09-6.27 6.45-2.73 1.4-5.85 2.11-9.26 2.11-5.07 0-9.23-1.56-12.7-4.78-3.37-3.12-5.08-8.52-5.08-16.05V1.61h-33.26v72.43c0 10.1 1.65 19.02 4.89 26.52 3.32 7.73 8.84 13.8 16.39 18.05 7.43 4.18 17.44 6.31 29.76 6.31s22.35-2.12 29.79-6.3c7.59-4.25 13.12-10.3 16.44-17.97 3.24-7.45 4.89-16.3 4.89-26.3V1.61h-33.18v73.96z" class="prefix__cls-2"/>
    <path id="prefix__path14" d="M546.81 66.08c-2.39-3.95-6.03-7.53-10.81-10.64-4.74-3.08-11.21-5.38-19.24-6.83l-18.83-3.52c-6.3-1.34-8.91-2.83-9.99-3.86-1.4-1.32-2.08-3.03-2.08-5.22 0-1.19.26-2.26.81-3.32.5-1 1.33-1.93 2.46-2.74 1.25-.88 2.87-1.6 4.78-2.12 4.47-1.22 11.79-1.08 16.49.44 2.39.78 4.25 2.02 5.7 3.76 1.41 1.73 2.29 4.11 2.61 7.09l.25 2.43h32.46l-.04-2.76c-.11-7.38-2.19-14.09-6.18-19.94-3.98-5.84-9.81-10.48-17.35-13.79-7.42-3.24-16.56-4.89-27.19-4.89-8.89 0-17.11 1.53-24.43 4.55-7.43 3.06-13.46 7.56-17.88 13.36-4.53 5.94-6.76 13.07-6.63 21.2.16 10.09 3.18 18.25 8.95 24.27 5.69 5.92 13.33 9.76 22.68 11.4l18.98 3.62c3.26.61 6.37 1.38 9.25 2.29 2.58.81 4.65 1.9 6.14 3.22 1.21 1.07 1.77 2.43 1.77 4.28 0 2.27-.68 4.01-2.1 5.31-1.64 1.52-3.87 2.66-6.62 3.4-5.91 1.59-13.68 1.69-19.16-.37-2.66-.99-4.86-2.43-6.55-4.27-1.67-1.82-2.77-4.03-3.39-6.75l-.47-2.13h-33.12l.25 2.96c.57 6.48 2.55 12.25 5.89 17.13 3.27 4.8 7.47 8.83 12.5 11.98 4.92 3.11 10.45 5.47 16.4 7.01 5.89 1.52 11.98 2.3 18.09 2.3 9.73 0 18.5-1.56 26.06-4.62 7.66-3.11 13.79-7.47 18.22-12.95 4.55-5.62 6.85-12.01 6.85-18.99 0-3.12-.33-6.64-.98-10.42-.66-3.97-2.2-7.96-4.58-11.86z" class="prefix__cls-2"/>
    <path id="prefix__path16" d="M690.28 7.75C681.72 2.61 671.55 0 660.06 0c-11.49 0-21.69 2.6-30.38 7.74-8.7 5.15-15.53 12.52-20.29 21.89-4.73 9.27-7.13 20.4-7.13 33.07 0 12.67 2.37 23.6 7.04 32.82 4.73 9.33 11.5 16.65 20.13 21.74 8.61 5.08 18.91 7.66 30.61 7.66s21.82-2.58 30.41-7.66c8.61-5.1 15.35-12.41 20.02-21.75 4.62-9.25 6.96-20.29 6.96-32.81 0-12.52-2.38-23.76-7.09-33.07-4.74-9.37-11.5-16.74-20.08-21.89zm-18.59 86.32c-6.54 4.27-16.69 4.28-23.25 0-3.24-2.11-5.85-5.64-7.75-10.48-1.99-5.08-2.99-11.97-2.99-20.48s1.01-15.83 3-21.11c1.91-5.04 4.54-8.74 7.8-10.98 3.31-2.27 7.1-3.38 11.57-3.38 4.47 0 8.18 1.1 11.5 3.35 3.25 2.2 5.85 5.88 7.74 10.91 1.97 5.27 2.96 12.4 2.96 21.2 0 8.8-.98 15.45-2.9 20.5-1.86 4.85-4.44 8.37-7.67 10.47z" class="prefix__cls-2"/>
    <path id="prefix__polygon18" d="M813.78 62.28 812.97 61.11 781.41 61.11 781.41 182.81 814.27 182.81 814.27 114.16 861.98 182.81 890.82 182.81 890.82 61.11 858.03 61.11 858.03 126.05z" class="prefix__cls-2" transform="translate(-54.18 -59.5)"/>
    <path id="prefix__polygon20" d="M54.26 227.14 54.18 348.86 135.63 348.86 135.63 320.65 87.15 320.65 87.15 227.14z" class="prefix__cls-1" transform="translate(-54.18 -59.5)"/>
    <path id="prefix__path22" d="m133.06 167.65-43.35 121.7h33.18l8.77-24.69h35.38l8.6 24.69h32.96l-43.34-121.7h-32.21zm25.83 67.94h-19.46l9.77-30.08 9.7 30.08z" class="prefix__cls-2"/>
    <path id="prefix__path24" d="M311.6 238.08c-1.65-2.88-4.15-5.58-7.42-8-1.86-1.37-4.06-2.58-6.58-3.64 4.79-2.84 8.35-5.96 10.6-9.33 3.1-4.65 4.68-10.07 4.68-16.11 0-10.8-4.12-19.2-12.24-24.97-7.83-5.56-20.04-8.38-36.3-8.38h-47.03v121.7h49.27c17.13 0 29.25-2.69 37.03-8.23 7.96-5.66 12-14.44 12-26.1 0-2.65-.26-5.41-.77-8.21-.55-2.97-1.64-5.91-3.25-8.74zm-31.44-29.42a8.756 8.756 0 0 1-2.55 3.06c-1.09.86-2.42 1.51-3.91 1.96-1.57.46-3.34.69-5.26.69h-18.27v-20.45h16.98c4.21 0 7.57.96 10.29 2.94 2.45 1.77 3.63 4.29 3.63 7.69 0 1.53-.31 2.93-.91 4.12zm-29.99 32.53h18.27c2.86 0 5.41.47 7.54 1.41 2.05.91 3.6 2.14 4.74 3.75 1.1 1.55 1.63 3.39 1.63 5.62 0 3.13-1.16 5.69-3.55 7.82-2.46 2.18-6.27 3.29-11.34 3.29h-17.3v-21.89z" class="prefix__cls-2"/>
    <path id="prefix__path26" d="M411.61 173.78c-8.55-5.13-18.73-7.74-30.23-7.74s-21.7 2.6-30.37 7.73c-8.7 5.15-15.52 12.51-20.3 21.89-4.73 9.29-7.13 20.41-7.13 33.07s2.38 23.6 7.04 32.83c4.73 9.33 11.51 16.65 20.14 21.74 8.6 5.08 18.9 7.65 30.6 7.65 11.7 0 21.83-2.57 30.42-7.66 8.61-5.1 15.34-12.42 20.01-21.74 4.63-9.25 6.97-20.29 6.97-32.82 0-12.53-2.39-23.76-7.1-33.06-4.75-9.38-11.51-16.74-20.08-21.89zm-18.59 86.32c-3.34 2.17-7.15 3.22-11.63 3.22s-8.34-1.08-11.63-3.22c-3.23-2.1-5.84-5.63-7.74-10.48-1.99-5.08-2.99-11.97-2.99-20.47 0-8.5 1.01-15.84 3-21.11 1.91-5.06 4.53-8.75 7.79-10.98 3.27-2.24 7.17-3.38 11.57-3.38s8.18 1.1 11.5 3.34c3.25 2.21 5.86 5.89 7.75 10.92 1.96 5.29 2.96 12.42 2.96 21.2s-.98 15.42-2.9 20.49c-1.86 4.85-4.44 8.37-7.67 10.47z" class="prefix__cls-2"/>
    <path id="prefix__path28" d="M516.33 241.6c0 5.11-.82 9.24-2.42 12.28-1.58 2.99-3.63 5.09-6.27 6.44-2.73 1.41-5.85 2.12-9.26 2.12-5.07 0-9.23-1.56-12.7-4.78-3.37-3.12-5.08-8.53-5.08-16.06v-73.95h-33.26v72.42c0 10.1 1.65 19.02 4.89 26.52 3.32 7.73 8.84 13.8 16.39 18.06 7.43 4.18 17.44 6.3 29.76 6.3s22.33-2.12 29.79-6.29c7.58-4.25 13.12-10.3 16.44-17.98 3.24-7.45 4.89-16.29 4.89-26.29v-72.75h-33.18v73.95z" class="prefix__cls-2"/>
    <path id="prefix__path30" d="M637.19 240.89c3.01-1.85 5.78-4.02 8.27-6.46 3.18-3.12 5.73-7 7.56-11.53 1.83-4.52 2.77-10.04 2.77-16.42 0-7.33-1.51-13.98-4.47-19.77-3.04-5.93-7.87-10.66-14.34-14.04-6.37-3.33-14.72-5.02-24.82-5.02h-53.61v121.7h32.86V246.9h15.41l17.93 42.45h34.14l-21.69-48.47Zm-45.79-47.21h17.78c3.77 0 6.93 1.22 9.65 3.74 2.66 2.46 3.95 5.58 3.95 9.54 0 3.96-1.29 7-3.94 9.77-2.63 2.74-6.05 4.07-10.46 4.07H591.4Z" class="prefix__cls-2"/>
    <g id="prefix__g36" transform="translate(-54.18 -59.5)">
        <path id="prefix__polygon32" d="M134.26 439.73 87.23 439.73 87.23 421.48 142.36 421.48 142.57 393.18 54.18 393.18 54.18 514.9 143.02 514.9 143.02 486.44 87.07 486.37 87.07 467.55 134.26 467.55z" class="prefix__cls-1"/>
        <path id="prefix__polygon34" d="M229.17 393.18 210.3 425.14 191.2 393.18 150.77 393.18 189.77 453.31 149.64 514.9 185.57 514.9 207.36 478.24 229.51 514.9 270.27 514.9 227.56 449.54 264.66 393.18z" class="prefix__cls-1"/>
    </g>
    <path id="prefix__path38" d="M294.87 338.42c-7.12-3.14-15.2-4.73-24.01-4.73h-47.18v121.7h32.94v-40.76h17.78c8.78 0 16.53-1.56 23.07-4.64 6.64-3.13 11.87-7.71 15.54-13.61 3.67-5.88 5.52-13.01 5.52-21.21 0-8.83-2.15-16.45-6.39-22.64-4.2-6.16-10.01-10.9-17.27-14.1zm-7.12 35.29c0 4.05-1.32 7.46-4.05 10.41-2.68 2.91-5.99 4.31-10.11 4.31h-17.22v-28.72h16.97c3.94 0 7.28 1.3 10.18 3.98 2.84 2.62 4.22 5.9 4.22 10.02z" class="prefix__cls-2"/>
    <path id="prefix__polygon40" d="M381.91 514.89 463.32 514.89 463.32 486.69 414.84 486.69 414.84 393.19 381.98 393.19z" class="prefix__cls-2" transform="translate(-54.18 -59.5)"/>
    <path id="prefix__path42" d="M502.8 339.82c-8.56-5.14-18.74-7.74-30.23-7.74-11.49 0-21.69 2.6-30.37 7.74-8.7 5.15-15.53 12.51-20.3 21.89-4.73 9.29-7.13 20.42-7.13 33.07 0 12.65 2.38 23.59 7.04 32.83 4.72 9.33 11.5 16.64 20.14 21.74 8.6 5.08 18.9 7.66 30.6 7.66 11.7 0 21.83-2.58 30.42-7.66 8.61-5.1 15.35-12.42 20.01-21.74 4.63-9.25 6.97-20.29 6.97-32.82 0-12.53-2.38-23.76-7.09-33.07-4.75-9.37-11.51-16.74-20.08-21.89zm-18.6 86.32c-3.32 2.17-7.13 3.22-11.62 3.22-4.49 0-8.34-1.08-11.63-3.22-3.23-2.1-5.84-5.63-7.74-10.48-1.99-5.08-2.99-11.97-2.99-20.48s1.01-15.84 3-21.11c1.91-5.05 4.53-8.75 7.79-10.98 3.27-2.24 7.17-3.37 11.57-3.37s8.18 1.09 11.5 3.34c3.25 2.21 5.85 5.89 7.75 10.92 1.96 5.29 2.96 12.42 2.96 21.2s-.98 15.42-2.9 20.49c-1.86 4.84-4.44 8.36-7.68 10.47z" class="prefix__cls-2"/>
    <path id="prefix__rect44" d="M541.74 333.69H574.61V455.39H541.74z" class="prefix__cls-2"/>
    <path id="prefix__polygon46" d="M639.96 422.83 673.98 422.83 673.98 514.89 706.92 514.89 706.92 422.83 740.68 422.83 740.68 393.19 639.96 393.19z" class="prefix__cls-2" transform="translate(-54.18 -59.5)"/>
    <path id="prefix__path48" d="m715.56 333.69-43.35 121.7h33.18l8.77-24.68h35.38l8.6 24.68h32.96l-43.33-121.7zm25.83 67.93h-19.46l9.77-30.08 9.7 30.08z" class="prefix__cls-2"/>
    <path id="prefix__polygon50" d="M865.01 514.89 897.95 514.89 897.95 422.83 931.72 422.83 931.72 393.19 831 393.19 831 422.83 865.01 422.83z" class="prefix__cls-2" transform="translate(-54.18 -59.5)"/>
    <path id="prefix__rect52" d="M886.72 333.69H919.58V455.39H886.72z" class="prefix__cls-2"/>
    <path id="prefix__path54" d="M1019.29 339.82c-8.55-5.14-18.72-7.74-30.21-7.74-11.49 0-21.7 2.6-30.38 7.74-8.71 5.16-15.53 12.52-20.29 21.89-4.73 9.27-7.13 20.4-7.13 33.07 0 12.67 2.38 23.59 7.04 32.83 4.72 9.33 11.5 16.64 20.13 21.74 8.61 5.08 18.91 7.66 30.61 7.66s21.81-2.58 30.41-7.66c8.62-5.1 15.36-12.42 20.02-21.75 4.62-9.25 6.96-20.29 6.96-32.81 0-12.52-2.39-23.76-7.1-33.07-4.73-9.36-11.49-16.73-20.08-21.89zm-18.59 86.32c-6.56 4.27-16.67 4.28-23.25 0-3.24-2.11-5.85-5.64-7.75-10.48-1.99-5.08-2.99-11.97-2.99-20.48s1.01-15.84 3-21.11c1.91-5.05 4.53-8.74 7.8-10.98 3.27-2.24 7.17-3.37 11.57-3.37s8.18 1.09 11.5 3.34c3.25 2.21 5.85 5.89 7.74 10.93 1.97 5.26 2.96 12.39 2.96 21.2 0 8.81-.98 15.45-2.9 20.49-1.86 4.85-4.44 8.37-7.67 10.47z" class="prefix__cls-2"/>
    <path id="prefix__polygon56" d="M1144.78 394.37 1143.98 393.19 1112.42 393.19 1112.42 514.89 1145.27 514.89 1145.27 446.24 1192.98 514.89 1221.82 514.89 1221.82 393.19 1189.03 393.19 1189.03 458.13z" class="prefix__cls-2" transform="translate(-54.18 -59.5)"/>
</svg>
